<svg width="541" height="413" fill="none" xmlns="http://www.w3.org/2000/svg"><g clip-path="url(#a)"><path d="M210.676 39.5h275.648c.721 0 1.364.045 1.816.115.15.024.27.048.36.072v56.626c-.09.024-.21.048-.36.072-.452.07-1.095.115-1.816.115H210.676c-.721 0-1.364-.046-1.816-.115a3.705 3.705 0 0 1-.36-.072V39.687c.09-.024.21-.048.36-.072.452-.07 1.095-.115 1.816-.115ZM210.676 105.5h275.648c.721 0 1.364.045 1.816.115.15.024.27.048.36.072v56.626c-.09.024-.21.048-.36.072-.452.07-1.095.115-1.816.115H210.676c-.721 0-1.364-.045-1.816-.115a3.765 3.765 0 0 1-.36-.072v-56.626c.09-.024.21-.048.36-.072.452-.07 1.095-.115 1.816-.115ZM210.676 176.5h275.648c.721 0 1.364.045 1.816.115.15.024.27.048.36.072v56.626c-.09.024-.21.048-.36.072-.452.07-1.095.115-1.816.115H210.676c-.721 0-1.364-.045-1.816-.115a3.765 3.765 0 0 1-.36-.072v-56.626c.09-.024.21-.048.36-.072.452-.07 1.095-.115 1.816-.115Z" fill="#fff" stroke="#CACACA"/><path d="M238.492 283.408c.944.176 1.72.648 2.328 1.416.608.768.912 1.648.912 2.64 0 .896-.224 1.688-.672 2.376-.432.672-1.064 1.2-1.896 1.584-.832.384-1.816.576-2.952.576h-7.224v-16.752h6.912c1.136 0 2.112.184 2.928.552.832.368 1.456.88 1.872 1.536.432.656.648 1.4.648 2.232 0 .976-.264 1.792-.792 2.448-.512.656-1.2 1.12-2.064 1.392Zm-6.144-1.248h3.072c.8 0 1.416-.176 1.848-.528.432-.368.648-.888.648-1.56s-.216-1.192-.648-1.56c-.432-.368-1.048-.552-1.848-.552h-3.072v4.2Zm3.384 7.104c.816 0 1.448-.192 1.896-.576.464-.384.696-.928.696-1.632 0-.72-.24-1.28-.72-1.68-.48-.416-1.128-.624-1.944-.624h-3.312v4.512h3.384Zm21.23-10.56V292h-3.384v-1.68c-.432.576-1 1.032-1.704 1.368-.688.32-1.44.48-2.256.48-1.04 0-1.96-.216-2.76-.648-.8-.448-1.432-1.096-1.896-1.944-.448-.864-.672-1.888-.672-3.072v-7.8h3.36v7.32c0 1.056.264 1.872.792 2.448.528.56 1.248.84 2.16.84.928 0 1.656-.28 2.184-.84.528-.576.792-1.392.792-2.448v-7.32h3.384Zm2.451 6.6c0-1.344.264-2.536.792-3.576.544-1.04 1.272-1.84 2.184-2.4.928-.56 1.96-.84 3.096-.84.992 0 1.856.2 2.592.6.752.4 1.352.904 1.8 1.512v-1.896h3.384V292h-3.384v-1.944c-.432.624-1.032 1.144-1.8 1.56-.752.4-1.624.6-2.616.6a5.71 5.71 0 0 1-3.072-.864c-.912-.576-1.64-1.384-2.184-2.424-.528-1.056-.792-2.264-.792-3.624Zm10.464.048c0-.816-.16-1.512-.48-2.088-.32-.592-.752-1.04-1.296-1.344a3.397 3.397 0 0 0-1.752-.48c-.624 0-1.2.152-1.728.456-.528.304-.96.752-1.296 1.344-.32.576-.48 1.264-.48 2.064s.16 1.504.48 2.112c.336.592.768 1.048 1.296 1.368.544.32 1.12.48 1.728.48.624 0 1.208-.152 1.752-.456.544-.32.976-.768 1.296-1.344.32-.592.48-1.296.48-2.112Zm10.578-3.888v6.432c0 .448.104.776.312.984.224.192.592.288 1.104.288h1.56V292h-2.112c-2.832 0-4.248-1.376-4.248-4.128v-6.408h-1.584v-2.76h1.584v-3.288h3.384v3.288h2.976v2.76h-2.976Zm14.471 7.872h5.52V292h-8.88v-16.752h3.36v14.088Zm9.36-12.216c-.592 0-1.088-.184-1.488-.552a1.925 1.925 0 0 1-.576-1.416c0-.56.192-1.024.576-1.392.4-.384.896-.576 1.488-.576s1.08.192 1.464.576c.4.368.6.832.6 1.392 0 .56-.2 1.032-.6 1.416-.384.368-.872.552-1.464.552Zm1.656 1.584V292h-3.36v-13.296h3.36Zm8.407 13.512c-1.088 0-2.064-.192-2.928-.576-.864-.4-1.552-.936-2.064-1.608a4.092 4.092 0 0 1-.816-2.232h3.384c.064.512.312.936.744 1.272.448.336 1 .504 1.656.504.64 0 1.136-.128 1.488-.384.368-.256.552-.584.552-.984 0-.432-.224-.752-.672-.96-.432-.224-1.128-.464-2.088-.72-.992-.24-1.808-.488-2.448-.744a4.351 4.351 0 0 1-1.632-1.176c-.448-.528-.672-1.24-.672-2.136 0-.736.208-1.408.624-2.016.432-.608 1.04-1.088 1.824-1.44.8-.352 1.736-.528 2.808-.528 1.584 0 2.848.4 3.792 1.2.944.784 1.464 1.848 1.56 3.192h-3.216c-.048-.528-.272-.944-.672-1.248-.384-.32-.904-.48-1.56-.48-.608 0-1.08.112-1.416.336-.32.224-.48.536-.48.936 0 .448.224.792.672 1.032.448.224 1.144.456 2.088.696.96.24 1.752.488 2.376.744.624.256 1.16.656 1.608 1.2.464.528.704 1.232.72 2.112 0 .768-.216 1.456-.648 2.064-.416.608-1.024 1.088-1.824 1.44-.784.336-1.704.504-2.76.504Zm11.903-10.752v6.432c0 .448.104.776.312.984.224.192.592.288 1.104.288h1.56V292h-2.112c-2.832 0-4.248-1.376-4.248-4.128v-6.408h-1.584v-2.76h1.584v-3.288h3.384v3.288h2.976v2.76h-2.976Zm14.471-6.216V292h-3.36v-16.752h3.36Zm7.232 6.216v6.432c0 .448.104.776.312.984.224.192.592.288 1.104.288h1.56V292h-2.112c-2.832 0-4.248-1.376-4.248-4.128v-6.408h-1.584v-2.76h1.584v-3.288h3.384v3.288h2.976v2.76h-2.976Zm17.752 3.6c0 .48-.032.912-.096 1.296h-9.72c.08.96.416 1.712 1.008 2.256.592.544 1.32.816 2.184.816 1.248 0 2.136-.536 2.664-1.608h3.624c-.384 1.28-1.12 2.336-2.208 3.168-1.088.816-2.424 1.224-4.008 1.224-1.28 0-2.432-.28-3.456-.84a6.182 6.182 0 0 1-2.376-2.424c-.56-1.04-.84-2.24-.84-3.6 0-1.376.28-2.584.84-3.624a5.861 5.861 0 0 1 2.352-2.4c1.008-.56 2.168-.84 3.48-.84 1.264 0 2.392.272 3.384.816a5.63 5.63 0 0 1 2.328 2.328c.56.992.84 2.136.84 3.432Zm-3.48-.96c-.016-.864-.328-1.552-.936-2.064-.608-.528-1.352-.792-2.232-.792-.832 0-1.536.256-2.112.768-.56.496-.904 1.192-1.032 2.088h6.312Zm22.445-5.592c1.632 0 2.944.504 3.936 1.512 1.008.992 1.512 2.384 1.512 4.176v7.8h-3.36v-7.344c0-1.04-.264-1.832-.792-2.376-.528-.56-1.248-.84-2.16-.84-.912 0-1.64.28-2.184.84-.528.544-.792 1.336-.792 2.376V292h-3.36v-7.344c0-1.04-.264-1.832-.792-2.376-.528-.56-1.248-.84-2.16-.84-.928 0-1.664.28-2.208.84-.528.544-.792 1.336-.792 2.376V292h-3.36v-13.296h3.36v1.608c.432-.56.984-1 1.656-1.32.688-.32 1.44-.48 2.256-.48 1.04 0 1.968.224 2.784.672a4.55 4.55 0 0 1 1.896 1.872c.432-.768 1.056-1.384 1.872-1.848a5.43 5.43 0 0 1 2.688-.696ZM406.899 292l-4.512-5.664V292h-3.36v-17.76h3.36v10.104l4.464-5.64h4.368l-5.856 6.672 5.904 6.624h-4.368Zm5.28-6.696c0-1.344.264-2.536.792-3.576.544-1.04 1.272-1.84 2.184-2.4.928-.56 1.96-.84 3.096-.84.992 0 1.856.2 2.592.6.752.4 1.352.904 1.8 1.512v-1.896h3.384V292h-3.384v-1.944c-.432.624-1.032 1.144-1.8 1.56-.752.4-1.624.6-2.616.6a5.71 5.71 0 0 1-3.072-.864c-.912-.576-1.64-1.384-2.184-2.424-.528-1.056-.792-2.264-.792-3.624Zm10.464.048c0-.816-.16-1.512-.48-2.088-.32-.592-.752-1.04-1.296-1.344a3.397 3.397 0 0 0-1.752-.48c-.624 0-1.2.152-1.728.456-.528.304-.96.752-1.296 1.344-.32.576-.48 1.264-.48 2.064s.16 1.504.48 2.112c.336.592.768 1.048 1.296 1.368.544.32 1.12.48 1.728.48.624 0 1.208-.152 1.752-.456.544-.32.976-.768 1.296-1.344.32-.592.48-1.296.48-2.112Zm23.177-6.84c1.632 0 2.944.504 3.936 1.512 1.008.992 1.512 2.384 1.512 4.176v7.8h-3.36v-7.344c0-1.04-.264-1.832-.792-2.376-.528-.56-1.248-.84-2.16-.84-.912 0-1.64.28-2.184.84-.528.544-.792 1.336-.792 2.376V292h-3.36v-7.344c0-1.04-.264-1.832-.792-2.376-.528-.56-1.248-.84-2.16-.84-.928 0-1.664.28-2.208.84-.528.544-.792 1.336-.792 2.376V292h-3.36v-13.296h3.36v1.608c.432-.56.984-1 1.656-1.32.688-.32 1.44-.48 2.256-.48 1.04 0 1.968.224 2.784.672a4.55 4.55 0 0 1 1.896 1.872c.432-.768 1.056-1.384 1.872-1.848a5.43 5.43 0 0 1 2.688-.696Zm21.189.192V292h-3.384v-1.68c-.432.576-1 1.032-1.704 1.368-.688.32-1.44.48-2.256.48-1.04 0-1.96-.216-2.76-.648-.8-.448-1.432-1.096-1.896-1.944-.448-.864-.672-1.888-.672-3.072v-7.8h3.36v7.32c0 1.056.264 1.872.792 2.448.528.56 1.248.84 2.16.84.928 0 1.656-.28 2.184-.84.528-.576.792-1.392.792-2.448v-7.32h3.384Z" fill="#555"/><path d="M456.621 73.03H260.015a5.016 5.016 0 0 1 0-10.03h196.606a5.018 5.018 0 0 1 5.016 5.015 5.017 5.017 0 0 1-5.016 5.015ZM456.621 139.03H260.015a5.018 5.018 0 0 1-5.015-5.015 5.012 5.012 0 0 1 5.015-5.015h196.606a5.016 5.016 0 1 1 0 10.03ZM456.621 210.03H260.015a5.018 5.018 0 0 1-5.015-5.015 5.012 5.012 0 0 1 5.015-5.015h196.606a5.016 5.016 0 1 1 0 10.03Z" fill="#E6E6E6"/><path d="M488.676 77.108c21.295 0 38.558-17.261 38.558-38.554C527.234 17.261 509.971 0 488.676 0c-21.296 0-38.559 17.261-38.559 38.554 0 21.293 17.263 38.554 38.559 38.554Z" fill="#16ABF8"/><path d="M472.61 36.01a2.544 2.544 0 1 0 0 5.088h13.522v13.52a2.54 2.54 0 0 0 2.544 2.537 2.546 2.546 0 0 0 2.544-2.538v-13.52h13.522a2.545 2.545 0 0 0 0-5.088H491.22V22.49a2.544 2.544 0 0 0-5.088 0v13.52H472.61Z" fill="#fff"/><path d="M541 411.663H0V413h541v-1.337Z" fill="#CACACA"/><path d="M452.065 381.17a15.358 15.358 0 0 0 14.829-2.612c5.194-4.359 6.821-11.54 8.147-18.187l3.918-19.668-8.204 5.647c-5.9 4.063-11.934 8.255-16.019 14.139-4.085 5.884-5.869 13.917-2.586 20.284" fill="#E6E6E6"/><path d="M453.332 406.35c-1.035-7.523-2.095-15.141-1.37-22.746.644-6.753 2.704-13.348 6.899-18.756a31.2 31.2 0 0 1 8.006-7.255c.802-.505 1.538.764.74 1.267a29.663 29.663 0 0 0-11.734 14.157c-2.555 6.497-2.965 13.579-2.525 20.482.268 4.173.831 8.32 1.399 12.461a.758.758 0 0 1-.512.902.733.733 0 0 1-.902-.512h-.001Z" fill="#F2F2F2"/><path d="M447.478 395.113a11.418 11.418 0 0 1-10.496 3.901c-4.971-.843-8.717-4.838-12.068-8.605L415 379.266l7.389.538c5.313.387 10.761.808 15.595 3.046 4.834 2.239 9 6.721 9.289 12.04" fill="#E6E6E6"/><path d="M455.984 410.651c-1.742-4.192-3.498-8.443-6.171-12.146a21.389 21.389 0 0 0-9.229-7.588 18.638 18.638 0 0 0-6.323-1.321c-.565-.019-.562.859 0 .877a17.736 17.736 0 0 1 10.334 3.754c3.283 2.579 5.636 6.108 7.497 9.801 1.124 2.233 2.087 4.542 3.046 6.85a.455.455 0 0 0 .535.31.44.44 0 0 0 .311-.537Z" fill="#F2F2F2"/><path d="M460.765 394.281a11.299 11.299 0 0 0 9.849 5.081c4.986-.236 9.143-3.716 12.885-7.02l11.067-9.771-7.324-.35c-5.268-.252-10.671-.488-15.689 1.136-5.017 1.625-9.644 5.534-10.562 10.726" fill="#E6E6E6"/><path d="M450.412 410.675c4.971-8.796 10.739-18.572 21.042-21.696a23.485 23.485 0 0 1 8.851-.914c.939.081.705 1.529-.233 1.448a21.815 21.815 0 0 0-14.124 3.737c-3.982 2.71-7.083 6.478-9.708 10.475-1.605 2.448-3.047 4.999-4.488 7.548-.46.814-1.805.226-1.34-.598Z" fill="#F2F2F2"/><path d="M528.042 396.966a11.851 11.851 0 0 1-11.444-2.015c-4.008-3.364-5.265-8.906-6.286-14.037l-3.024-15.179 6.332 4.36c4.553 3.135 9.209 6.37 12.362 10.911 3.152 4.541 4.529 10.74 1.996 15.653" fill="#E6E6E6"/><path d="M526.293 411.373c.557-4.057 1.13-8.166.739-12.265a19.286 19.286 0 0 0-3.72-10.114 16.842 16.842 0 0 0-4.317-3.912c-.432-.272-.829.412-.401.683a15.993 15.993 0 0 1 6.327 7.634c1.378 3.504 1.599 7.322 1.362 11.044-.144 2.251-.448 4.487-.755 6.719a.408.408 0 0 0 .276.486.397.397 0 0 0 .487-.276l.002.001Z" fill="#F2F2F2"/><circle cx="237" cy="68" r="5" fill="#E5E5E5"/><circle cx="237" cy="134" r="5" fill="#E5E5E5"/><circle cx="237" cy="205" r="5" fill="#E5E5E5"/><path d="M220.592 179.122a8.905 8.905 0 0 0-2.606-2.662 8.737 8.737 0 0 0-3.446-1.343 8.657 8.657 0 0 0-3.682.211 8.75 8.75 0 0 0-3.277 1.726 8.355 8.355 0 0 0-.853.83l-34.687-5.148-1.931-26.591a7.765 7.765 0 0 0-2.603-5.273 7.474 7.474 0 0 0-5.499-1.851 7.52 7.52 0 0 0-5.172 2.655 7.81 7.81 0 0 0-1.804 5.747l3.381 37.312.017.083a6.982 6.982 0 0 0 2.515 3.569 6.76 6.76 0 0 0 4.107 1.332l40.799-.718c.158.247.329.485.511.713a8.872 8.872 0 0 0 2.886 2.343 8.676 8.676 0 0 0 7.209.301 8.834 8.834 0 0 0 3.063-2.095 8.59 8.59 0 0 0 .499-.568 9.167 9.167 0 0 0 .573-10.573ZM151.001 402l9.486-.001L165 363l-14 .001.001 38.999Z" fill="#FFB7B7"/><path d="m148.001 411 31.999-.001v-.409c0-3.339-1.313-6.541-3.648-8.902a12.39 12.39 0 0 0-8.807-3.688h-.001l-19.544.001.001 12.999Z" fill="#2F2E41"/><path d="M81 392.832 90.672 396 108 361.676 93.724 357 81 392.832Z" fill="#FFB7B7"/><path d="m76 400.9 30.205 10.1.13-.375a11.96 11.96 0 0 0-.608-9.301c-1.453-2.898-4.02-5.113-7.138-6.155v-.001L80.14 389 76 400.9ZM139.887 67.257s9.773-3.278 16.056 9.835C162.226 90.205 172 104.63 172 104.63l-5.585 1.311s-1.396-9.179-4.887-10.49l1.396 11.801s-41.886 13.769-60.735-1.311l.698-4.589s-2.793.655-2.793 4.589L98 103.973s2.094-3.934 8.377-9.179c4.124-3.442 5.541-9.992 6.028-14.087a16.537 16.537 0 0 1 4.179-9.283c4.176-4.545 11.784-9.375 23.303-4.167Z" fill="#2F2E41"/><path d="M136 113c-9.941 0-18-8.059-18-18s8.059-18 18-18 18 8.059 18 18-8.059 18-18 18Z" fill="#FFB7B7"/><path d="m159.889 128.097 3.333-1.097s6.667 2.742 6.667 7.677c0 4.936 1.111 24.678 1.111 24.678L156 161l3.889-32.903Z" fill="#CBCBCB"/><path d="M101.754 235.113a8.563 8.563 0 0 0 2.126-5.51 8.568 8.568 0 0 0-1.934-5.581l9.046-76.834a6.911 6.911 0 0 0-1.735-4.931 6.713 6.713 0 0 0-4.662-2.248 6.697 6.697 0 0 0-4.865 1.75 6.887 6.887 0 0 0-2.229 4.799l-8.092 76.916a8.128 8.128 0 0 0-.81.96 8.607 8.607 0 0 0-1.37 3.034 8.676 8.676 0 0 0 1.024 6.465 8.5 8.5 0 0 0 2.522 2.645 8.333 8.333 0 0 0 7.133 1.046 8.326 8.326 0 0 0 3.846-2.511Z" fill="#FFB7B7"/><path d="m110 159-15-1.645s1.111-19.742 1.111-24.678c0-4.935 6.667-7.677 6.667-7.677l3.333 1.097L110 159Z" fill="#CBCBCB"/><path d="M158.257 186.01s12.644 23.027 12.644 50.955c0 27.928 1.099 156.067 1.099 156.067s-16.491 7.666-26.386-1.643l-8.795-141.829-34.632 139.091s-16.491 3.286-24.187-2.19l14.842-96.926s6.047-90.902 22.538-97.474c16.491-6.571 42.877-6.051 42.877-6.051ZM155.347 95c-6.409-4.517-11.596-9.72-15.027-15.909 0 0-11.76 12.727-18.947 13.364-7.187.636-.654-15.273-.654-15.273L133.786 74l12.414 1.273 9.8 6.363L155.347 95Z" fill="#2F2E41"/><path d="M118.308 122.03s-.513-.276 30.152.846l12.834 3.552 1.706.472s-1.615 32.468-5.923 38.42c-4.308 5.953-3.231 9.199-2.154 9.741 1.077.541 3.769-.542 2.154 2.164-1.615 2.706-3.769 1.082-1.615 2.706 2.153 1.623 3.23 7.575 3.23 7.575L111.308 194s-1.616-21.104-5.923-31.926c-4.308-10.823-5.385-15.152-5.385-15.152l3.231-21.645 15.077-3.247Z" fill="#CBCBCB"/></g><defs><clipPath id="a"><path fill="#fff" d="M0 0h541v413H0z"/></clipPath></defs></svg>